<svg id="Layer_1" data-name="Layer 1" xmlns="http://www.w3.org/2000/svg" viewBox="0 0 100 100">
  <defs>
    <style>
      .cls-1 {
        fill: #4eb857;
      }

      .cls-2 {
        font-size: 31.51px;
        fill: #fff;
        font-family: Lato;
        font-style: italic;
      }
    </style>
  </defs>
  <title>svg-annotate-logo</title>
  <ellipse class="cls-1" cx="50" cy="36.98" rx="48.56" ry="32.06"/>
  <text class="cls-2" transform="translate(22.5 48.08)">S<tspan x="15.63" y="0">V</tspan><tspan x="35.08" y="0">G</tspan></text>
  <path class="cls-1" d="M57.5,59.63l0,0.12a0.94,0.94,0,0,0,0,.19l0,0.46,0,0.58a5.05,5.05,0,0,1-.08.61l-0.23,1.21c-0.2.87-.44,1.89-0.81,3l-0.59,1.73L54.9,69.36c-0.25.64-.57,1.27-0.9,1.92s-0.65,1.32-1,2a39.25,39.25,0,0,1-2.59,3.94c-0.49.64-.94,1.31-1.49,1.92l-1.64,1.83a20.21,20.21,0,0,1-1.75,1.72l-1.81,1.62c-1.29,1-2.55,1.93-3.82,2.76S37.26,88.59,36,89.23l-3.67,1.62C31.17,91.3,30,91.63,29,92l-1.45.46c-0.46.14-.92,0.21-1.34,0.31l-2.16.46-1.85.38,1.34-1.35L25,90.71c0.28-.3.6-0.58,0.89-0.94l0.91-1.12c0.62-.79,1.31-1.59,2-2.49l1.86-2.9c0.58-1,1.07-2.13,1.6-3.18s0.83-2.23,1.21-3.3l0.4-1.67a10.72,10.72,0,0,0,.31-1.62l0.2-1.57c0.07-.5,0-1,0.06-1.52a20.69,20.69,0,0,0-.12-2.75c0-.42-0.13-0.84-0.19-1.22a8.23,8.23,0,0,0-.23-1.1l-0.25-1-0.3-.82a7.86,7.86,0,0,0-.55-1.17L32.58,62c0-.07-0.06,0-0.09,0l-0.07.06-0.05.05a0.2,0.2,0,0,1-.05-0.1l0-.12Z"/>
</svg>
